<svg xmlns="http://www.w3.org/2000/svg" viewBox="0 0 32 32"><style>.icon-canvas-transparent{opacity:0;fill:#f6f6f6}.icon-vs-out{fill:#f6f6f6}.icon-vs-bg{fill:#424242}.icon-vs-red{fill:#e51400}</style><path class="icon-canvas-transparent" d="M32 0v32H0V0h32z" id="canvas"/><path class="icon-vs-out" d="M32 0v27H5V0h27z" id="outline"/><path class="icon-vs-bg" d="M13.652 16.044l-1.339 1.875 1.768 1.768 1.877-1.341c.147.077.281.17.438.235.156.065.317.094.475.143L17.25 21h2.5l.379-2.273c.316-.099.622-.226.915-.379l1.875 1.339 1.768-1.768-1.341-1.877c.077-.147.17-.281.235-.438.065-.156.094-.317.143-.475L26 14.75v-2.5l-2.273-.379a5.582 5.582 0 0 0-.379-.915l1.339-1.875-1.767-1.768-1.877 1.341c-.147-.077-.281-.17-.438-.235-.156-.065-.317-.094-.475-.143L19.75 6h-2.5l-.379 2.273a5.496 5.496 0 0 0-.915.379l-1.875-1.339-1.768 1.767 1.341 1.877c-.077.147-.17.281-.235.438-.065.156-.094.317-.143.475L11 12.25v2.5l2.273.379c.098.316.225.622.379.915zM18.5 11.13a2.37 2.37 0 1 1 0 4.74 2.37 2.37 0 0 1 0-4.74zM7 2v23h23V2H7zm21 21H9V4h19v19z" id="iconBg"/><g id="colorImportance"><path class="icon-vs-out" d="M14.979 30.962L13.325 32 5 31.993c-1.875-.074-3.474-2.671-3.85-3.628a6.97 6.97 0 0 1-.475-2.95C1 18 8 10 8 10c7 3 6.488 10.819 6 12 0 0 2-1 3-5l.559 2.271c.089.352 1.941 7.972-2.58 11.691z"/><path class="icon-vs-red" d="M13.081 31h-2c-1.211 0-3.613-2.219-4.435-2.969-.453-.416-2.208-2.385-1.565-3.031-1.702 1.711-.182 6 2 6h-2c-1.232 0-2.643-2.09-3-3a5.975 5.975 0 0 1-.407-2.536l-.003-.066c-.103-3.794 2.875-8.804 4.406-11.12.085-.13.173-.26.262-.39.376-.554.622-.888.622-.888s-.025.197-.044.538c-.01.316-.01.73.012 1.222 0 .001.002.427.048 1.049a17.542 17.542 0 0 0 1.669 5.932C13.353 16.276 8.081 11 8.081 11c5.676 2.838 5 7.999 5 7.999 0 2.838-2.178 6.192-2.178 6.192C8.067 28.031 13.081 31 13.081 31zm3.508-11.484c0 2.838-2.84 5.676-2.84 5.676-2.838 2.84-.66 5.809-.66 5.809 5.68-2.839 3.5-11.485 3.5-11.485z"/></g></svg>